<svg width="193" height="64" viewBox="0 0 193 64" fill="none" xmlns="http://www.w3.org/2000/svg">
<path d="M76.1228 31.98C75.8668 31.66 75.5468 31.396 75.1628 31.188C74.7948 30.964 74.3388 30.852 73.7948 30.852C73.2828 30.852 72.8348 30.964 72.4508 31.188C72.0828 31.396 71.8988 31.708 71.8988 32.124C71.8988 32.46 72.0028 32.732 72.2108 32.94C72.4348 33.148 72.6908 33.316 72.9788 33.444C73.2828 33.572 73.6028 33.668 73.9388 33.732C74.2748 33.796 74.5628 33.852 74.8028 33.9C75.2668 34.012 75.6988 34.148 76.0988 34.308C76.5148 34.468 76.8668 34.676 77.1548 34.932C77.4588 35.188 77.6908 35.5 77.8508 35.868C78.0268 36.236 78.1148 36.684 78.1148 37.212C78.1148 37.852 77.9788 38.404 77.7068 38.868C77.4348 39.316 77.0828 39.684 76.6508 39.972C76.2188 40.26 75.7228 40.468 75.1628 40.596C74.6188 40.724 74.0668 40.788 73.5068 40.788C72.5628 40.788 71.7308 40.644 71.0108 40.356C70.3068 40.068 69.6748 39.54 69.1148 38.772L70.7468 37.428C71.0988 37.78 71.4908 38.092 71.9228 38.364C72.3548 38.636 72.8828 38.772 73.5068 38.772C73.7788 38.772 74.0508 38.748 74.3228 38.7C74.6108 38.636 74.8588 38.548 75.0668 38.436C75.2908 38.308 75.4668 38.156 75.5948 37.98C75.7388 37.788 75.8108 37.572 75.8108 37.332C75.8108 37.012 75.7068 36.748 75.4988 36.54C75.3068 36.332 75.0668 36.172 74.7788 36.06C74.5068 35.932 74.2108 35.836 73.8908 35.772C73.5868 35.692 73.3148 35.628 73.0748 35.58C72.6108 35.468 72.1708 35.34 71.7548 35.196C71.3388 35.052 70.9708 34.86 70.6508 34.62C70.3308 34.38 70.0748 34.076 69.8828 33.708C69.6908 33.34 69.5948 32.884 69.5948 32.34C69.5948 31.748 69.7148 31.236 69.9548 30.804C70.2108 30.356 70.5388 29.988 70.9388 29.7C71.3548 29.412 71.8188 29.196 72.3308 29.052C72.8588 28.908 73.3868 28.836 73.9148 28.836C74.6828 28.836 75.4188 28.98 76.1228 29.268C76.8268 29.556 77.3868 30.036 77.8028 30.708L76.1228 31.98ZM80.9069 22.356H83.0669V40.5H80.9069V22.356ZM88.2565 34.812C88.2565 35.388 88.3445 35.924 88.5205 36.42C88.6965 36.9 88.9445 37.316 89.2645 37.668C89.5845 38.004 89.9765 38.276 90.4405 38.484C90.9045 38.676 91.4245 38.772 92.0005 38.772C92.5765 38.772 93.0965 38.676 93.5605 38.484C94.0245 38.276 94.4165 38.004 94.7365 37.668C95.0565 37.316 95.3045 36.9 95.4805 36.42C95.6565 35.924 95.7445 35.388 95.7445 34.812C95.7445 34.236 95.6565 33.708 95.4805 33.228C95.3045 32.732 95.0565 32.316 94.7365 31.98C94.4165 31.628 94.0245 31.356 93.5605 31.164C93.0965 30.956 92.5765 30.852 92.0005 30.852C91.4245 30.852 90.9045 30.956 90.4405 31.164C89.9765 31.356 89.5845 31.628 89.2645 31.98C88.9445 32.316 88.6965 32.732 88.5205 33.228C88.3445 33.708 88.2565 34.236 88.2565 34.812ZM85.9525 34.812C85.9525 33.98 86.1045 33.204 86.4085 32.484C86.7285 31.764 87.1605 31.132 87.7045 30.588C88.2485 30.044 88.8885 29.62 89.6245 29.316C90.3605 28.996 91.1525 28.836 92.0005 28.836C92.8485 28.836 93.6405 28.996 94.3765 29.316C95.1125 29.62 95.7525 30.044 96.2965 30.588C96.8405 31.132 97.2645 31.764 97.5685 32.484C97.8885 33.204 98.0485 33.98 98.0485 34.812C98.0485 35.644 97.8885 36.428 97.5685 37.164C97.2645 37.884 96.8405 38.516 96.2965 39.06C95.7525 39.588 95.1125 40.012 94.3765 40.332C93.6405 40.636 92.8485 40.788 92.0005 40.788C91.1525 40.788 90.3605 40.636 89.6245 40.332C88.8885 40.012 88.2485 39.588 87.7045 39.06C87.1605 38.516 86.7285 37.884 86.4085 37.164C86.1045 36.428 85.9525 35.644 85.9525 34.812ZM102.506 34.812C102.506 35.388 102.594 35.924 102.77 36.42C102.946 36.9 103.194 37.316 103.514 37.668C103.834 38.004 104.226 38.276 104.69 38.484C105.154 38.676 105.674 38.772 106.25 38.772C106.826 38.772 107.346 38.676 107.81 38.484C108.274 38.276 108.666 38.004 108.986 37.668C109.306 37.316 109.554 36.9 109.73 36.42C109.906 35.924 109.994 35.388 109.994 34.812C109.994 34.236 109.906 33.708 109.73 33.228C109.554 32.732 109.306 32.316 108.986 31.98C108.666 31.628 108.274 31.356 107.81 31.164C107.346 30.956 106.826 30.852 106.25 30.852C105.674 30.852 105.154 30.956 104.69 31.164C104.226 31.356 103.834 31.628 103.514 31.98C103.194 32.316 102.946 32.732 102.77 33.228C102.594 33.708 102.506 34.236 102.506 34.812ZM100.202 34.812C100.202 33.98 100.354 33.204 100.658 32.484C100.978 31.764 101.41 31.132 101.954 30.588C102.498 30.044 103.138 29.62 103.874 29.316C104.61 28.996 105.402 28.836 106.25 28.836C107.098 28.836 107.89 28.996 108.626 29.316C109.362 29.62 110.002 30.044 110.546 30.588C111.09 31.132 111.514 31.764 111.818 32.484C112.138 33.204 112.298 33.98 112.298 34.812C112.298 35.644 112.138 36.428 111.818 37.164C111.514 37.884 111.09 38.516 110.546 39.06C110.002 39.588 109.362 40.012 108.626 40.332C107.89 40.636 107.098 40.788 106.25 40.788C105.402 40.788 104.61 40.636 103.874 40.332C103.138 40.012 102.498 39.588 101.954 39.06C101.41 38.516 100.978 37.884 100.658 37.164C100.354 36.428 100.202 35.644 100.202 34.812ZM115.004 29.124H117.164V30.756H117.212C117.628 30.148 118.196 29.676 118.916 29.34C119.652 29.004 120.404 28.836 121.172 28.836C122.052 28.836 122.844 28.988 123.548 29.292C124.268 29.596 124.876 30.02 125.372 30.564C125.884 31.108 126.276 31.748 126.548 32.484C126.82 33.204 126.956 33.98 126.956 34.812C126.956 35.66 126.82 36.452 126.548 37.188C126.276 37.908 125.884 38.54 125.372 39.084C124.876 39.612 124.268 40.028 123.548 40.332C122.844 40.636 122.052 40.788 121.172 40.788C120.356 40.788 119.588 40.62 118.868 40.284C118.148 39.932 117.596 39.46 117.212 38.868H117.164V47.268H115.004V29.124ZM120.908 30.852C120.332 30.852 119.812 30.956 119.348 31.164C118.884 31.356 118.492 31.628 118.172 31.98C117.852 32.316 117.604 32.732 117.428 33.228C117.252 33.708 117.164 34.236 117.164 34.812C117.164 35.388 117.252 35.924 117.428 36.42C117.604 36.9 117.852 37.316 118.172 37.668C118.492 38.004 118.884 38.276 119.348 38.484C119.812 38.676 120.332 38.772 120.908 38.772C121.484 38.772 122.004 38.676 122.468 38.484C122.932 38.276 123.324 38.004 123.644 37.668C123.964 37.316 124.212 36.9 124.388 36.42C124.564 35.924 124.652 35.388 124.652 34.812C124.652 34.236 124.564 33.708 124.388 33.228C124.212 32.732 123.964 32.316 123.644 31.98C123.324 31.628 122.932 31.356 122.468 31.164C122.004 30.956 121.484 30.852 120.908 30.852ZM135.724 31.98C135.468 31.66 135.148 31.396 134.764 31.188C134.396 30.964 133.94 30.852 133.396 30.852C132.884 30.852 132.436 30.964 132.052 31.188C131.684 31.396 131.5 31.708 131.5 32.124C131.5 32.46 131.604 32.732 131.812 32.94C132.036 33.148 132.292 33.316 132.58 33.444C132.884 33.572 133.204 33.668 133.54 33.732C133.876 33.796 134.164 33.852 134.404 33.9C134.868 34.012 135.3 34.148 135.7 34.308C136.116 34.468 136.468 34.676 136.756 34.932C137.06 35.188 137.292 35.5 137.452 35.868C137.628 36.236 137.716 36.684 137.716 37.212C137.716 37.852 137.58 38.404 137.308 38.868C137.036 39.316 136.684 39.684 136.252 39.972C135.82 40.26 135.324 40.468 134.764 40.596C134.22 40.724 133.668 40.788 133.108 40.788C132.164 40.788 131.332 40.644 130.612 40.356C129.908 40.068 129.276 39.54 128.716 38.772L130.348 37.428C130.7 37.78 131.092 38.092 131.524 38.364C131.956 38.636 132.484 38.772 133.108 38.772C133.38 38.772 133.652 38.748 133.924 38.7C134.212 38.636 134.46 38.548 134.668 38.436C134.892 38.308 135.068 38.156 135.196 37.98C135.34 37.788 135.412 37.572 135.412 37.332C135.412 37.012 135.308 36.748 135.1 36.54C134.908 36.332 134.668 36.172 134.38 36.06C134.108 35.932 133.812 35.836 133.492 35.772C133.188 35.692 132.916 35.628 132.676 35.58C132.212 35.468 131.772 35.34 131.356 35.196C130.94 35.052 130.572 34.86 130.252 34.62C129.932 34.38 129.676 34.076 129.484 33.708C129.292 33.34 129.196 32.884 129.196 32.34C129.196 31.748 129.316 31.236 129.556 30.804C129.812 30.356 130.14 29.988 130.54 29.7C130.956 29.412 131.42 29.196 131.932 29.052C132.46 28.908 132.988 28.836 133.516 28.836C134.284 28.836 135.02 28.98 135.724 29.268C136.428 29.556 136.988 30.036 137.404 30.708L135.724 31.98ZM146.436 30.996H143.34V36.156C143.34 36.476 143.348 36.796 143.364 37.116C143.38 37.42 143.436 37.7 143.532 37.956C143.644 38.196 143.804 38.396 144.012 38.556C144.236 38.7 144.556 38.772 144.972 38.772C145.228 38.772 145.492 38.748 145.764 38.7C146.036 38.652 146.284 38.564 146.508 38.436V40.404C146.252 40.548 145.916 40.644 145.5 40.692C145.1 40.756 144.788 40.788 144.564 40.788C143.732 40.788 143.084 40.676 142.62 40.452C142.172 40.212 141.836 39.908 141.612 39.54C141.404 39.172 141.276 38.764 141.228 38.316C141.196 37.852 141.18 37.388 141.18 36.924V30.996H138.684V29.124H141.18V25.932H143.34V29.124H146.436V30.996ZM149.271 30.516C149.879 29.956 150.583 29.54 151.383 29.268C152.183 28.98 152.983 28.836 153.783 28.836C154.615 28.836 155.327 28.94 155.919 29.148C156.527 29.356 157.023 29.636 157.407 29.988C157.791 30.34 158.071 30.748 158.247 31.212C158.439 31.66 158.535 32.132 158.535 32.628V38.436C158.535 38.836 158.543 39.204 158.559 39.54C158.575 39.876 158.599 40.196 158.631 40.5H156.711C156.663 39.924 156.639 39.348 156.639 38.772H156.591C156.111 39.508 155.543 40.028 154.887 40.332C154.231 40.636 153.471 40.788 152.607 40.788C152.079 40.788 151.575 40.716 151.095 40.572C150.615 40.428 150.191 40.212 149.823 39.924C149.471 39.636 149.191 39.284 148.983 38.868C148.775 38.436 148.671 37.94 148.671 37.38C148.671 36.644 148.831 36.028 149.151 35.532C149.487 35.036 149.935 34.636 150.495 34.332C151.071 34.012 151.735 33.788 152.487 33.66C153.255 33.516 154.071 33.444 154.935 33.444H156.519V32.964C156.519 32.676 156.463 32.388 156.351 32.1C156.239 31.812 156.071 31.556 155.847 31.332C155.623 31.092 155.343 30.908 155.007 30.78C154.671 30.636 154.271 30.564 153.807 30.564C153.391 30.564 153.023 30.604 152.703 30.684C152.399 30.764 152.119 30.868 151.863 30.996C151.607 31.108 151.375 31.244 151.167 31.404C150.959 31.564 150.759 31.716 150.567 31.86L149.271 30.516ZM155.367 35.028C154.855 35.028 154.327 35.06 153.783 35.124C153.255 35.172 152.767 35.276 152.319 35.436C151.887 35.596 151.527 35.82 151.239 36.108C150.967 36.396 150.831 36.764 150.831 37.212C150.831 37.868 151.047 38.34 151.479 38.628C151.927 38.916 152.527 39.06 153.279 39.06C153.871 39.06 154.375 38.964 154.791 38.772C155.207 38.564 155.543 38.3 155.799 37.98C156.055 37.66 156.239 37.308 156.351 36.924C156.463 36.524 156.519 36.132 156.519 35.748V35.028H155.367ZM167.717 31.98C167.461 31.66 167.141 31.396 166.757 31.188C166.389 30.964 165.933 30.852 165.389 30.852C164.877 30.852 164.429 30.964 164.045 31.188C163.677 31.396 163.493 31.708 163.493 32.124C163.493 32.46 163.597 32.732 163.805 32.94C164.029 33.148 164.285 33.316 164.573 33.444C164.877 33.572 165.197 33.668 165.533 33.732C165.869 33.796 166.157 33.852 166.397 33.9C166.861 34.012 167.293 34.148 167.693 34.308C168.109 34.468 168.461 34.676 168.749 34.932C169.053 35.188 169.285 35.5 169.445 35.868C169.621 36.236 169.709 36.684 169.709 37.212C169.709 37.852 169.573 38.404 169.301 38.868C169.029 39.316 168.677 39.684 168.245 39.972C167.813 40.26 167.317 40.468 166.757 40.596C166.213 40.724 165.661 40.788 165.101 40.788C164.157 40.788 163.325 40.644 162.605 40.356C161.901 40.068 161.269 39.54 160.709 38.772L162.341 37.428C162.693 37.78 163.085 38.092 163.517 38.364C163.949 38.636 164.477 38.772 165.101 38.772C165.373 38.772 165.645 38.748 165.917 38.7C166.205 38.636 166.453 38.548 166.661 38.436C166.885 38.308 167.061 38.156 167.189 37.98C167.333 37.788 167.405 37.572 167.405 37.332C167.405 37.012 167.301 36.748 167.093 36.54C166.901 36.332 166.661 36.172 166.373 36.06C166.101 35.932 165.805 35.836 165.485 35.772C165.181 35.692 164.909 35.628 164.669 35.58C164.205 35.468 163.765 35.34 163.349 35.196C162.933 35.052 162.565 34.86 162.245 34.62C161.925 34.38 161.669 34.076 161.477 33.708C161.285 33.34 161.189 32.884 161.189 32.34C161.189 31.748 161.309 31.236 161.549 30.804C161.805 30.356 162.133 29.988 162.533 29.7C162.949 29.412 163.413 29.196 163.925 29.052C164.453 28.908 164.981 28.836 165.509 28.836C166.277 28.836 167.013 28.98 167.717 29.268C168.421 29.556 168.981 30.036 169.397 30.708L167.717 31.98ZM172.333 22.356H174.493V30.876H174.541C174.813 30.268 175.285 29.78 175.957 29.412C176.629 29.028 177.405 28.836 178.285 28.836C178.829 28.836 179.349 28.924 179.845 29.1C180.357 29.26 180.797 29.516 181.165 29.868C181.549 30.22 181.853 30.676 182.077 31.236C182.301 31.78 182.413 32.428 182.413 33.18V40.5H180.253V33.78C180.253 33.252 180.181 32.804 180.037 32.436C179.893 32.052 179.701 31.748 179.461 31.524C179.221 31.284 178.941 31.116 178.621 31.02C178.317 30.908 177.997 30.852 177.661 30.852C177.213 30.852 176.797 30.924 176.413 31.068C176.029 31.212 175.693 31.444 175.405 31.764C175.117 32.068 174.893 32.46 174.733 32.94C174.573 33.42 174.493 33.988 174.493 34.644V40.5H172.333V22.356Z" fill="black"/>
<path d="M29.5833 11.4486L29.5833 11.4487L29.5852 11.4498C35.8491 15.2136 38.0652 23.0208 34.3522 29.2946L23.0604 7.12824L29.5833 11.4486Z" fill="#67CB20" stroke="#67CB20" stroke-width="0.1"/>
<path d="M34.225 29.2654L27.5171 25.2349C21.2546 21.472 19.2109 13.3627 22.9262 7.08503L34.225 29.2654Z" fill="#6BA443" stroke="#6BA443" stroke-width="0.1"/>
<path d="M8.97218 33.8219L14.8783 28.6878C20.3922 23.8946 28.7361 24.4568 33.5585 29.9302L8.97218 33.8219Z" fill="#0077CC" stroke="#0077CC" stroke-width="0.1"/>
<path d="M33.4914 30.042L27.5853 35.1761C22.0714 39.9693 13.7275 39.4071 8.9051 33.9337L33.4914 30.042Z" fill="#00639A" stroke="#157DB7" stroke-width="0.1"/>
<path d="M30.0749 55.4966L27.0171 48.293C24.1624 41.5678 27.2755 33.806 33.9712 30.911L30.0749 55.4966Z" fill="#B6207E" stroke="#B6207E" stroke-width="0.1"/>
<path d="M34.0569 31.0094L37.1146 38.213C39.9693 44.9382 36.8562 52.7 30.1605 55.595L34.0569 31.0094Z" fill="#892062" stroke="#892062" stroke-width="0.1"/>
<path d="M57.1926 42.1233L49.3967 42.8054C42.1185 43.4421 35.6986 38.0829 35.0144 30.8203L57.1926 42.1233Z" fill="#F53633" stroke="#F53633" stroke-width="0.1"/>
<path d="M35.1345 30.7692L42.9304 30.0872C50.2086 29.4504 56.6285 34.8097 57.3127 42.0722L35.1345 30.7692Z" fill="#DB2C29" stroke="#DB2C29" stroke-width="0.1"/>
<path d="M52.8233 12.0654L35.2201 29.6653L36.9805 22.0402C38.624 14.9214 45.7047 10.4718 52.8233 12.0654Z" fill="#FF8A00" stroke="#FF8A00" stroke-width="0.1"/>
<path d="M52.8347 12.1953L51.0744 19.8204C49.4309 26.9392 42.3501 31.3888 35.2315 29.7952L52.8347 12.1953Z" fill="#FF9A24" stroke="#FF9A24" stroke-width="0.1"/>
</svg>
